<?xml version="1.0" encoding="utf-8"?><!-- Uploaded to: SVG Repo, www.svgrepo.com, Generator: SVG Repo Mixer Tools -->
<svg fill="#fff" width="800px" height="800px" viewBox="0 0 24 24" id="report-pie-chart-10" data-name="Line Color" xmlns="http://www.w3.org/2000/svg" class="icon line-color">
<path id="primary" d="M8,17v3a1,1,0,0,0,1,1H20a1,1,0,0,0,1-1V4a1,1,0,0,0-1-1H9A1,1,0,0,0,8,4V7"
 style="fill: none; stroke: #fff; stroke-linecap: round; stroke-linejoin: round; stroke-width: 2;">
 </path><path id="secondary" 
 d="M13,12A5,5,0,1,1,8,7,5,5,0,0,1,13,12ZM8,12V7a5,5,0,0,0-3.54,8.54ZM8,7v5h5A5,5,0,0,0,8,7Z"
  style="fill: none; stroke: #fff; stroke-linecap: round; stroke-linejoin: round; stroke-width: 2;"></path></svg>