<?xml version="1.0" encoding="iso-8859-1"?>
<!-- Uploaded to: SVG Repo, www.svgrepo.com, Generator: SVG Repo Mixer Tools -->
<svg height="800px" width="800px" version="1.1" id="Layer_1" xmlns="http://www.w3.org/2000/svg" xmlns:xlink="http://www.w3.org/1999/xlink" 
	 viewBox="0 0 512 512" xml:space="preserve">
<path style="fill:#11b021;" d="M283.664,125.82h-23.928v-53.6c-0.024-6.584-5.392-11.904-11.976-11.88c-0.008,0-0.016,0-0.024,0
	H135.112c-6.584-0.04-11.96,5.272-12,11.856c0,0.008,0,0.016,0,0.024v53.6H99.2v-53.6c0.096-19.744,16.152-35.68,35.896-35.632
	h112.672c19.744-0.048,35.8,15.888,35.896,35.632V125.82z"/>
<path style="fill:#11b021;" d="M53.776,111.9L0,369.732h382.872L329.096,111.9C329.096,111.9,53.776,111.9,53.776,111.9z"/>
<path style="fill:#FFFFFF;" d="M133.6,202.964c-11.464-0.072-20.704-9.424-20.632-20.888s9.424-20.704,20.888-20.632
	c11.416,0.072,20.632,9.344,20.632,20.76c-0.024,11.488-9.352,20.784-20.84,20.76C133.632,202.964,133.616,202.964,133.6,202.964z
	 M249.256,202.964c-11.464-0.072-20.704-9.424-20.632-20.888s9.424-20.704,20.888-20.632c11.416,0.072,20.632,9.344,20.632,20.76
	c-0.024,11.488-9.352,20.784-20.84,20.76C249.288,202.964,249.28,202.964,249.256,202.964L249.256,202.964z"/>
<circle style="fill:#11b021;" cx="404" cy="367.412" r="108"/>
<polygon style="fill:#FFFFFF;" points="441.12,318.356 386.176,386.124 363.088,363.332 347.856,380.1 387.96,419.684 
	458.032,333.26 "/>
</svg>