<?xml version="1.0" encoding="utf-8"?>

<!-- Uploaded to: SVG Repo, www.svgrepo.com, Generator: SVG Repo Mixer Tools -->
<svg fill="#c42929" height="800px" width="800px" version="1.1" id="Icons" xmlns="http://www.w3.org/2000/svg" xmlns:xlink="http://www.w3.org/1999/xlink" 
	 viewBox="0 0 32 32" xml:space="preserve">
<path d="M14,24c0-4.3,2.7-8,6.6-9.4L20,8.9C19.9,8.4,19.5,8,19,8h-3V7c0-2.8-2.2-5-5-5S6,4.2,6,7v1H3C2.5,8,2.1,8.4,2,8.9l-2,20
	c0,0.3,0.1,0.6,0.3,0.8S0.7,30,1,30h15C14.8,28.3,14,26.3,14,24z M8,7c0-1.7,1.3-3,3-3s3,1.3,3,3v1H8V7z" />
<path d="M18.3,18.3c-3.1,3.1-3.1,8.2,0,11.3s8.2,3.1,11.3,0s3.1-8.2,0-11.3S21.5,15.2,18.3,18.3z M26.8,22.6L25.4,24l1.4,1.4
	c0.4,0.4,0.4,1,0,1.4c-0.4,0.4-1,0.4-1.4,0L24,25.4l-1.4,1.4c-0.4,0.4-1,0.4-1.4,0c-0.4-0.4-0.4-1,0-1.4l1.4-1.4l-1.4-1.4
	c-0.4-0.4-0.4-1,0-1.4c0.4-0.4,1-0.4,1.4,0l1.4,1.4l1.4-1.4c0.4-0.4,1-0.4,1.4,0C27.2,21.6,27.2,22.2,26.8,22.6z"
	
	/>
</svg>