<?xml version="1.0" encoding="utf-8"?>

<!-- Uploaded to: SVG Repo, www.svgrepo.com, Generator: SVG Repo Mixer Tools -->
<svg fill="#000000" height="800px" width="800px" version="1.1" id="Icons" xmlns="http://www.w3.org/2000/svg" xmlns:xlink="http://www.w3.org/1999/xlink" 
	 viewBox="0 0 32 32" xml:space="preserve">
<path d="M24,16c-4.4,0-8,3.6-8,8s3.6,8,8,8s8-3.6,8-8S28.4,16,24,16z M27,25h-2v2c0,0.6-0.4,1-1,1s-1-0.4-1-1v-2h-2
	c-0.6,0-1-0.4-1-1s0.4-1,1-1h2v-2c0-0.6,0.4-1,1-1s1,0.4,1,1v2h2c0.6,0,1,0.4,1,1S27.6,25,27,25z"/>
<path d="M14,24c0-4.3,2.7-8,6.6-9.4L20,8.9C19.9,8.4,19.5,8,19,8h-3V7c0-2.8-2.2-5-5-5S6,4.2,6,7v1H3C2.5,8,2.1,8.4,2,8.9l-2,20
	c0,0.3,0.1,0.6,0.3,0.8S0.7,30,1,30h15C14.8,28.3,14,26.3,14,24z M8,7c0-1.7,1.3-3,3-3s3,1.3,3,3v1H8V7z"/>
</svg>